<?xml version="1.0" standalone="no"?>
<!DOCTYPE svg PUBLIC "-//W3C//DTD SVG 20010904//EN"
 "http://www.w3.org/TR/2001/REC-SVG-20010904/DTD/svg10.dtd">
<svg version="1.0" xmlns="http://www.w3.org/2000/svg"
 viewBox="0 0 2600.000000 2600.000000"
 preserveAspectRatio="xMidYMid meet">
<metadata>
Created by potrace 1.15, written by Peter Selinger 2001-2017
</metadata>
<g transform="translate(0.000000,2600.000000) scale(0.100000,-0.100000)"
fill="#FFFFFF" stroke="none">
<path d="M8303 20031 c-1102 -176 -1547 -250 -1557 -261 -27 -29 -2909 -4324
-2910 -4338 -1 -9 261 -115 827 -332 455 -174 829 -319 831 -321 1 -2 -271
-591 -606 -1308 -335 -718 -605 -1308 -601 -1312 20 -19 597 -279 604 -272 4
4 284 602 622 1328 338 726 618 1320 622 1319 3 0 294 -111 645 -245 l639
-244 1 -3182 0 -3183 1390 0 1390 0 0 -710 0 -710 -822 -2 -823 -3 -3 -338 -2
-337 1160 0 1160 0 0 1050 0 1050 1320 0 1320 0 0 -1050 0 -1050 1160 0 1160
0 0 340 0 340 -820 0 -820 0 0 710 0 710 1385 0 1385 0 0 3160 0 3160 27 6
c15 4 329 76 698 159 l670 152 27 -56 c14 -31 269 -577 566 -1214 297 -637
543 -1161 545 -1164 7 -7 600 270 604 282 1 6 -237 525 -531 1155 -294 630
-533 1146 -531 1148 1 1 345 80 764 175 419 95 762 176 763 181 0 5 -2829
4811 -2911 4945 -6 9 -479 88 -1571 262 l-1563 248 -136 -129 c-154 -145 -253
-230 -367 -312 -679 -488 -1522 -683 -2349 -543 -515 87 -1008 308 -1415 634
-52 42 -158 138 -236 213 -77 76 -147 138 -155 137 -8 -1 -708 -112 -1556
-248z m1426 -546 c589 -509 1329 -820 2130 -895 147 -14 514 -14 667 0 792 72
1552 392 2130 897 l84 74 1232 -196 c678 -107 1239 -198 1245 -203 23 -13
2302 -3887 2290 -3891 -7 -3 -581 -133 -1277 -291 l-1265 -286 -3 1028 -2
1028 -340 0 -340 0 0 -4200 0 -4200 -4090 0 -4090 0 0 4200 0 4200 -340 0
-340 0 0 -990 c0 -544 -2 -990 -5 -990 -11 0 -2541 972 -2548 980 -5 4 507
774 1136 1711 l1145 1703 1233 197 c679 108 1240 198 1247 198 8 1 53 -33 101
-74z"/>
<path d="M10578 17265 c-148 -38 -280 -144 -343 -277 -97 -203 -57 -428 103
-587 322 -322 872 -92 872 364 0 216 -140 414 -345 486 -77 27 -211 34 -287
14z"/>
<path d="M13568 17265 c-189 -48 -339 -199 -383 -387 -41 -173 9 -342 140
-474 204 -207 521 -206 727 1 192 194 198 504 12 704 -100 109 -208 159 -354
166 -55 3 -105 0 -142 -10z"/>
<path d="M10240 14865 c0 -359 60 -637 199 -920 394 -800 1272 -1231 2146
-1054 381 77 729 269 1005 555 284 293 447 613 527 1029 10 51 17 166 20 318
l5 237 -1951 0 -1951 0 0 -165z m3426 -335 c-24 -184 -146 -460 -282 -636 -73
-96 -252 -268 -340 -326 -462 -308 -1011 -351 -1500 -118 -302 145 -569 413
-707 711 -61 130 -126 338 -127 402 0 16 77 17 1481 17 l1482 0 -7 -50z"/>
</g>
</svg>